<?xml version="1.0" encoding="UTF-8"?>
<svg width="13px" height="23px" viewBox="0 0 13 23" version="1.1" xmlns="http://www.w3.org/2000/svg" xmlns:xlink="http://www.w3.org/1999/xlink">
    <!-- Generator: Sketch 46.1 (44463) - http://www.bohemiancoding.com/sketch -->
    <title>fb-ic</title>
    <desc>Created with Sketch.</desc>
    <defs></defs>
    <g id="Page-1" stroke="none" stroke-width="1" fill="none" fill-rule="evenodd" opacity="0.6">
        <g id="Fantastic-Homepage" transform="translate(-351.000000, -4494.000000)" fill="#FFFFFF">
            <g id="Footer" transform="translate(0.000000, 4266.000000)">
                <path d="M363.087571,229.094774 C363.059454,228.923649 362.940936,228.78034 362.77858,228.720779 C361.787811,228.35918 360.478376,228.000907 359.073099,228 C357.970766,227.999698 356.802826,228.224639 355.717123,228.857739 C355.170492,229.175499 354.739657,229.577309 354.411618,230.02961 C353.917897,230.708968 353.655163,231.49082 353.507016,232.284463 C353.387592,232.926331 353.342543,233.580293 353.318356,234.2143 C353.035366,234.220951 352.714583,234.223068 352.422522,234.223068 C352.167045,234.223068 351.933336,234.221556 351.763118,234.219742 C351.678161,234.218835 351.609529,234.21823 351.56176,234.217626 C351.51399,234.216719 351.488593,234.216416 351.487989,234.216416 C351.359796,234.214602 351.234023,234.265395 351.142414,234.355191 C351.051107,234.44559 350.999105,234.571061 351.000012,234.699556 L351.019059,237.892268 C351.020873,238.158327 351.236139,238.392339 351.501594,238.392339 L351.836889,238.392339 C352.307028,238.392339 353.184419,238.372082 353.85894,238.385385 C353.958712,240.57856 353.982295,243.8653 353.982295,246.41554 C353.982295,247.490661 353.97776,248.427613 353.974132,249.102437 C353.971713,249.438941 353.969899,249.706512 353.968085,249.892149 C353.966573,250.077484 353.965666,250.176651 353.965666,250.177256 C353.964457,250.305448 354.014645,250.429105 354.10565,250.520412 C354.196352,250.611114 354.320311,250.661907 354.448806,250.661302 L358.722082,250.639836 C358.850576,250.639232 358.971512,250.587834 359.06161,250.496225 C359.152009,250.404918 359.201291,250.283075 359.200082,250.154278 C359.200082,250.154278 359.177708,247.52664 359.151405,244.692201 C359.129032,242.254734 359.10424,239.667912 359.09003,238.463086 C359.35367,238.458551 359.660848,238.456737 359.95956,238.457039 C360.308763,238.457039 360.648593,238.459156 360.900745,238.461272 C361.026518,238.462179 361.130826,238.463389 361.203085,238.464296 C361.275949,238.465203 361.316463,238.465505 361.316463,238.465505 C361.444957,238.467319 361.568614,238.417433 361.660223,238.327336 C361.751833,238.237238 361.803533,238.114488 361.803835,237.985994 L361.809277,235.028804 C361.809579,234.90031 361.759089,234.735534 361.668084,234.645135 C361.577382,234.554735 361.455237,234.462219 361.32644,234.462219 L361.166804,234.462219 C361.064613,234.462219 360.919188,234.505756 360.744737,234.505756 C360.208688,234.505756 359.397812,234.524803 358.756246,234.513919 C358.767735,234.18588 358.797364,233.90682 358.845739,233.659506 C358.892299,233.418843 358.956395,233.223834 359.03198,233.063291 C359.08882,232.94296 359.152009,232.848025 359.219734,232.768509 C359.322529,232.649387 359.43379,232.568965 359.5771,232.509101 C359.720107,232.449843 359.899999,232.414469 360.130382,232.414167 C360.539448,232.412957 361.101196,232.533893 361.804742,232.805697 C361.847372,232.820512 361.857652,232.820814 361.867931,232.823233 C361.884258,232.827163 361.900282,232.830791 361.916306,232.832908 C361.932027,232.834722 361.947447,232.835327 361.962564,232.835931 C361.978588,232.836234 361.994007,232.836536 362.010031,232.835629 C362.025753,232.834419 362.04087,232.832303 362.055684,232.829582 C362.071104,232.827163 362.086523,232.82414 362.101338,232.82021 C362.11585,232.816279 362.130362,232.811139 362.14427,232.805697 C362.159085,232.800557 362.173597,232.794813 362.187505,232.787859 C362.20111,232.781208 362.213808,232.773649 362.226809,232.765788 C362.240112,232.757625 362.253415,232.748857 362.266113,232.739485 C362.278207,232.730717 362.289091,232.72074 362.299975,232.71046 C362.312069,232.699576 362.323558,232.688692 362.333837,232.6769 C362.371932,232.628224 362.381305,232.615223 362.389468,232.601315 C362.415772,232.548708 362.421516,232.53994 362.425446,232.529661 C362.533987,232.177434 362.700576,231.641385 362.843583,231.075707 C362.914935,230.792112 362.981148,230.500656 363.030127,230.219782 C363.078803,229.938605 363.111759,229.670127 363.112061,229.41979 C363.111456,229.309133 363.104805,229.201802 363.087571,229.094774 Z M359.056772,231.692783 C358.818831,231.815835 358.611425,231.989379 358.44544,232.198296 C358.195405,232.51273 358.03456,232.898213 357.933579,233.336909 C357.832597,233.776511 357.789362,234.274768 357.789362,234.836516 C357.789362,234.893961 357.789967,234.952312 357.790572,235.011269 C357.794804,235.267955 357.999489,235.40552 358.256176,235.413986 C358.939767,235.435754 360.059937,235.368937 360.744435,235.368937 L360.847231,235.368937 L360.843603,237.428781 C360.5978,237.426967 360.283669,237.460224 359.95956,237.460224 C359.447698,237.460224 358.917696,237.482295 358.579377,237.498924 C358.320272,237.511924 358.118913,237.735656 358.122541,237.995064 C358.135542,238.81622 358.164566,241.862901 358.190568,244.696433 C358.203568,246.113502 358.215662,247.481289 358.224732,248.492314 C358.228965,248.983012 358.232593,249.390264 358.235012,249.679302 L354.931038,249.696837 C354.936178,249.059807 354.943132,247.851353 354.943132,246.403446 C354.943132,243.66636 354.917131,240.082723 354.796799,237.868383 C354.783496,237.619255 354.583347,237.423036 354.334219,237.414268 C353.683281,237.39129 352.601508,237.387058 351.97778,237.386755 L351.964477,235.182696 C352.10053,235.183603 352.257142,235.18451 352.422824,235.18451 C352.892661,235.184207 353.431431,235.17937 353.812078,235.157299 C354.061206,235.143089 354.258332,234.939614 354.264681,234.690486 C354.290682,233.679158 354.348127,232.652411 354.616907,231.779252 C354.750844,231.342068 354.934969,230.944189 355.189237,230.594381 C355.44411,230.244876 355.767916,229.940722 356.201472,229.687965 C357.112423,229.157661 358.098656,228.961442 359.073703,228.96114 C360.183594,228.960233 361.269298,229.220548 362.147596,229.51805 C362.140642,229.668313 362.118269,229.853648 362.083197,230.054704 C362.018497,230.425978 361.913584,230.848649 361.806858,231.235645 C361.757879,231.412816 361.7089,231.581522 361.662642,231.736925 C361.095754,231.553404 360.590846,231.454539 360.130382,231.453632 C359.738549,231.45333 359.374532,231.527403 359.056772,231.692783 Z" id="fb-ic"></path>
            </g>
        </g>
    </g>
</svg>