<?xml version="1.0" encoding="UTF-8" standalone="no"?>
<svg width="19px" height="19px" viewBox="0 0 19 19" version="1.1" xmlns="http://www.w3.org/2000/svg" xmlns:xlink="http://www.w3.org/1999/xlink">
    <!-- Generator: Sketch 45.2 (43514) - http://www.bohemiancoding.com/sketch -->
    <title>linkedin-ic</title>
    <desc>Created with Sketch.</desc>
    <defs></defs>
    <g id="Symbols" stroke="none" stroke-width="1" fill="none" fill-rule="evenodd">
        <g id="footer" transform="translate(-529.000000, -230.000000)" fill-rule="nonzero" stroke="#B5B5B5">
            <g id="linkedin-ic" transform="translate(530.000000, 231.000000)">
                <polygon id="Shape" points="0.330769461 16.5660372 3.74872056 16.5660372 3.74872056 5.52201239 0.330769461 5.52201239"></polygon>
                <path d="M2.02596295,4.074896 C3.14230988,4.074896 4.04733188,3.16068596 4.04733188,2.03515099 C4.04733188,0.909616018 3.14230988,0 2.02596295,0 C0.905021998,0 0,0.909616018 0,2.03515099 C0,3.16068596 0.905021998,4.074896 2.02596295,4.074896 Z" id="Shape"></path>
                <path d="M9.21560471,10.7683836 C9.21560471,9.21560471 9.92767785,8.29220663 11.2966959,8.29220663 C12.5554575,8.29220663 13.1618681,9.17885254 13.1618681,10.7683836 C13.1618681,12.3579146 13.1618681,16.5660372 13.1618681,16.5660372 L16.5614432,16.5660372 C16.5614432,16.5660372 16.5614432,12.5324874 16.5614432,9.57393829 C16.5614432,6.61538922 14.8846257,5.18205489 12.5416754,5.18205489 C10.2033191,5.18205489 9.21560471,7.01047497 9.21560471,7.01047497 L9.21560471,5.52201239 L5.93547422,5.52201239 L5.93547422,16.5660372 L9.21560471,16.5660372 C9.21560471,16.5660372 9.21560471,12.4681711 9.21560471,10.7683836 Z" id="Shape"></path>
            </g>
        </g>
    </g>
</svg>