<?xml version="1.0" encoding="UTF-8"?>
<svg width="20px" height="17px" viewBox="0 0 20 17" version="1.1" xmlns="http://www.w3.org/2000/svg" xmlns:xlink="http://www.w3.org/1999/xlink">
    <!-- Generator: Sketch 46.1 (44463) - http://www.bohemiancoding.com/sketch -->
    <title>tw-ic</title>
    <desc>Created with Sketch.</desc>
    <defs></defs>
    <g id="Page-1" stroke="none" stroke-width="1" fill="none" fill-rule="evenodd" opacity="0.6">
        <g id="Fantastic-Homepage" transform="translate(-388.000000, -4497.000000)" fill="#FFFFFF">
            <g id="Footer" transform="translate(0.000000, 4266.000000)">
                <path d="M407.46199,232.942919 C407.610453,232.433226 407.440651,231.882056 407.029312,231.550248 C406.795947,231.360841 406.513549,231.265446 406.227064,231.265446 C406.000964,231.265446 405.774863,231.325356 405.571918,231.448401 C405.168751,231.688501 404.746969,231.881134 404.306573,232.017083 C403.464825,231.363606 402.42104,231 401.348198,231 C398.889243,231 396.852069,232.861811 396.531079,235.269261 C394.570634,234.843441 392.784532,233.747092 391.497848,232.145198 C391.252679,231.838276 390.884925,231.663155 390.500827,231.663155 C390.468591,231.663155 390.43454,231.665459 390.400035,231.667763 C389.978707,231.701405 389.602327,231.942426 389.389393,232.312024 C388.957169,233.06366 388.729707,233.920831 388.729707,234.79413 C388.729707,235.384011 388.832769,235.957762 389.023456,236.493724 C388.81824,236.730598 388.699288,237.03752 388.699288,237.361954 C388.699288,238.656005 389.180545,239.845905 389.982339,240.739943 C389.932851,240.962991 389.94057,241.198943 390.012758,241.424757 C390.290163,242.306813 390.797754,243.065823 391.454262,243.645105 C391.02794,243.743264 390.586636,243.793496 390.138975,243.793496 C389.906972,243.793496 389.672246,243.778289 389.435703,243.751099 C389.385761,243.744647 389.335819,243.741421 389.284969,243.741421 C388.746505,243.741421 388.258891,244.083367 388.075922,244.610112 C387.872977,245.181559 388.087727,245.82075 388.590778,246.149332 C390.43908,247.350753 392.574776,247.986257 394.766315,247.986257 C401.87395,247.986257 406.145341,242.17962 406.22207,236.511697 C406.800487,236.011681 407.308986,235.436086 407.740302,234.79367 C407.903294,234.575229 408,234.303792 408,234.006548 C408,233.569207 407.78752,233.181176 407.46199,232.942919 Z M404.924944,235.88541 C404.933116,236.040714 404.936294,236.197401 404.936294,236.354549 C404.936294,241.149172 401.340934,246.67746 394.766315,246.67746 C392.74821,246.67746 390.869034,246.07698 389.286331,245.047454 C389.564644,245.078791 389.850674,245.098607 390.138975,245.098607 C391.813843,245.098607 393.354777,244.517944 394.578806,243.54418 C393.012902,243.516068 391.693983,242.465804 391.238604,241.024744 C391.456986,241.067142 391.681271,241.090645 391.909641,241.090645 C392.236533,241.090645 392.552529,241.045482 392.851726,240.962991 C391.216357,240.627957 389.983701,239.163395 389.983701,237.403891 L389.983701,237.358729 C390.465867,237.629705 391.017498,237.792844 391.60318,237.811278 C390.644296,237.160566 390.01412,236.049009 390.01412,234.790905 C390.01412,234.126367 390.190279,233.503767 390.498103,232.967805 C392.259688,235.162806 394.894348,236.606631 397.865435,236.757788 C397.803688,236.493263 397.773723,236.214913 397.773723,235.930572 C397.773723,233.928665 399.373679,232.304189 401.346836,232.304189 C402.375639,232.304189 403.305011,232.744756 403.95698,233.448465 C404.770124,233.286709 405.53605,232.984856 406.22661,232.568714 C405.959194,233.415285 405.392127,234.126367 404.655257,234.575229 C405.377598,234.488591 406.065434,234.293654 406.707414,234.003783 C406.229334,234.735142 405.62413,235.373873 404.924944,235.88541 Z" id="tw-ic"></path>
            </g>
        </g>
    </g>
</svg>